<svg id="Capa_1" data-name="Capa 1" xmlns="http://www.w3.org/2000/svg" viewBox="0 0 43 42.89">
  <defs>
    <style>
      .cls-1 {
        fill: #707070;
      }
    </style>
  </defs>
  <g id="Layer_57" data-name="Layer 57">
    <path class="cls-1" d="M32,10.5A21.52,21.52,0,0,0,10.5,32c1.18,28.52,41.82,28.51,43,0A21.52,21.52,0,0,0,32,10.5Zm0,40A18.52,18.52,0,0,1,13.5,32c1-24.54,36-24.54,37,0A18.52,18.52,0,0,1,32,50.5Z" transform="translate(-10.5 -10.5)"/>
    <path class="cls-1" d="M32,18.75a7.09,7.09,0,0,0-7.07,7.07,1.5,1.5,0,0,0,3,0A4.07,4.07,0,1,1,32,29.89h0a1.5,1.5,0,0,0-1.5,1.5v7.86a1.5,1.5,0,0,0,3,0V32.73C41.65,30.81,40.45,18.93,32,18.75Z" transform="translate(-10.5 -10.5)"/>
    <path class="cls-1" d="M32,42.34a1.59,1.59,0,1,0,1.59,1.59A1.59,1.59,0,0,0,32,42.34Z" transform="translate(-10.5 -10.5)"/>
  </g>
</svg>
