<svg id="Capa_1" data-name="Capa 1" xmlns="http://www.w3.org/2000/svg" viewBox="0 0 81.17 81.19">
  <defs>
    <style>
      .cls-1 {
        fill: #717070;
        stroke: #707070;
        stroke-miterlimit: 10;
      }
    </style>
  </defs>
  <path class="cls-1" d="M80.17,40.08A40,40,0,0,0,69.34,12.69h0a40,40,0,0,0-56.53-2c-.68.63-1.33,1.29-2,2h0a40,40,0,0,0,0,54.79h0A40.26,40.26,0,0,0,40.08,80.17h0A40.23,40.23,0,0,0,69.33,67.48h0A40,40,0,0,0,80.17,40.08ZM68,63.72l-.22-.2c-.17-.17-.35-.33-.53-.49-.37-.35-.75-.69-1.14-1l-.62-.52-1.17-.92-.62-.47c-.46-.33-.93-.65-1.4-1l-.44-.3c-.63-.4-1.27-.79-1.91-1.16l-.45-.25c-.5-.28-1-.55-1.52-.8l-.7-.34c-.44-.21-.89-.42-1.35-.61l-.75-.32-.51-.21c.06-.46.11-.92.17-1.38s.14-1,.19-1.48c.09-.77.17-1.54.24-2.32,0-.47.09-.93.12-1.4.07-.9.12-1.82.16-2.73,0-.36.05-.71.06-1.07,0-1.25.08-2.51.08-3.78h21A36.41,36.41,0,0,1,68,63.72ZM50.43,58.88c-.08.37-.15.73-.24,1.09s-.15.66-.23,1-.17.69-.26,1-.16.63-.25.94-.19.66-.28,1-.19.6-.28.89l-.3.93c-.1.28-.2.56-.29.83l-.33.87c-.1.26-.2.52-.31.77s-.23.54-.34.81l-.33.71c-.11.25-.24.5-.36.74l-.33.64-.38.67c-.11.2-.23.4-.34.58s-.27.4-.4.6-.23.34-.35.5-.27.36-.41.53-.23.29-.35.42l-.43.45c-.14.14-.23.24-.35.35s-.3.25-.45.36l-.34.27c-.16.11-.32.19-.48.28l-.32.18c-.18.08-.36.13-.54.19a2.66,2.66,0,0,1-.27.09,3.74,3.74,0,0,1-.81.1h0a3.58,3.58,0,0,1-.8-.1,1,1,0,0,1-.27-.09c-.09,0-.36-.11-.54-.19a2.61,2.61,0,0,1-.32-.18c-.11-.06-.32-.17-.48-.28l-.33-.26a5.32,5.32,0,0,1-.46-.37c-.12-.11-.23-.23-.34-.34s-.3-.29-.44-.46L35.76,74c-.11-.14-.29-.35-.43-.54s-.22-.32-.33-.49-.28-.4-.41-.61l-.33-.56c-.13-.23-.27-.45-.39-.69s-.22-.42-.33-.63-.25-.5-.37-.76L32.86,69l-.36-.83c-.1-.24-.2-.5-.3-.75l-.33-.89-.29-.81c-.1-.31-.21-.63-.31-1L31,63.92c-.09-.33-.19-.66-.29-1s-.16-.61-.25-.92-.17-.7-.26-1.06-.15-.64-.23-1l-.24-1.1c-.07-.34-.14-.68-.2-1a2.32,2.32,0,0,0-.07-.38h0c.75-.23,1.51-.42,2.27-.6l.51-.12c.71-.15,1.44-.28,2.16-.4l.61-.08q1.08-.16,2.16-.24h.57c.7,0,1.4-.07,2.1-.07h.45c.7,0,1.4,0,2.1.07L43,56a15.83,15.83,0,0,1,2.17.24l.6.08c.73.12,1.45.25,2.17.4l.5.12c.76.18,1.52.37,2.28.6h0a2.79,2.79,0,0,1-.07.38ZM30,21.53l.24-1.05c.08-.31.16-.61.23-.91s.18-.67.27-1,.17-.58.25-.86.19-.63.29-.94.18-.55.27-.81l.3-.88c.1-.26.19-.52.29-.77s.21-.55.32-.81l.3-.72L33.1,12c.1-.22.21-.44.31-.65s.24-.47.36-.69l.32-.6c.11-.2.24-.42.37-.62s.22-.32.34-.47.25-.37.38-.55.22-.32.33-.46l.4-.49.34-.39c.14-.15.28-.28.42-.41L37,6.33,37.44,6a2.43,2.43,0,0,1,.32-.24c.15-.1.31-.18.46-.26a3.16,3.16,0,0,1,.31-.16,4.56,4.56,0,0,1,.52-.18l.26-.08a3.38,3.38,0,0,1,1.55,0l.26.08a4.56,4.56,0,0,1,.52.18c.1,0,.2.11.3.16s.31.16.47.26l.32.24a4.7,4.7,0,0,1,.44.34c.11.09.22.2.33.31s.28.26.42.41l.33.39c.14.16.27.32.4.49l.33.45c.13.19.27.37.39.57s.22.34.33.52.25.41.37.63l.32.58.36.7c.1.21.2.43.31.65s.23.5.34.76l.3.7c.11.27.22.55.32.83s.19.5.28.75.21.59.31.89l.27.81c.1.31.19.62.29.94s.16.57.25.86l.27,1c.07.3.15.59.22.9s.17.7.25,1.06l.21.93.06.31h0c-.73.22-1.46.4-2.2.57l-.46.1c-.71.15-1.41.28-2.12.39l-.6.08c-.7.1-1.4.17-2.11.23h-.55c-.68,0-1.36.07-2,.07h-.45a18.72,18.72,0,0,1-2-.07h-.55c-.71-.06-1.41-.13-2.11-.23l-.59-.08c-.71-.11-1.42-.24-2.12-.39l-.47-.1c-.74-.17-1.47-.35-2.2-.57h0l.06-.31ZM48.9,53.39l-.56-.13c-.69-.15-1.39-.27-2.09-.37l-.92-.14c-.67-.09-1.33-.16-2-.21l-1-.07h-4.4l-1,.07c-.67.05-1.35.12-2,.21l-.93.14c-.7.1-1.4.23-2.1.37l-.54.13c-.69.15-1.39.33-2.07.52L29,54a8,8,0,0,0-.14-1c-.05-.37-.11-.9-.16-1.35-.08-.74-.16-1.48-.22-2.23l-.12-1.31c-.06-.84-.1-1.69-.14-2.54,0-.35-.05-.7-.06-1.06A26.94,26.94,0,0,1,28,41H52.17c0,1.2,0,2.39-.07,3.57a7.31,7.31,0,0,1-.05,1q-.06,1.29-.15,2.55c0,.44-.07.88-.11,1.32-.07.74-.14,1.48-.22,2.22-.06.45-.11.9-.17,1.35s-.09.63-.14.94l-.3-.07C50.28,53.72,49.59,53.54,48.9,53.39ZM31.75,26.89h.07c.85.18,1.72.33,2.59.45h.23c.87.12,1.75.22,2.63.28h.1c.9.07,1.81.1,2.71.1a24.73,24.73,0,0,0,2.72-.1h.1c.88-.07,1.76-.16,2.63-.27h.24q1.29-.18,2.58-.45h.07c.81-.17,1.61-.37,2.4-.59l.23-.06c.06.36.12.7.17,1.06s.1.66.14,1c.13,1,.24,2,.34,2.94v.4c.1,1.13.19,2.27.25,3.43V36a14.54,14.54,0,0,0,0,1.48H28A14.54,14.54,0,0,1,28.05,36V35c.07-1.15.15-2.29.26-3.42v-.44c.1-1,.21-1.94.34-2.9a7.07,7.07,0,0,1,.14-1c.05-.34.11-.7.17-1.06l.23.06C30.15,26.52,31,26.72,31.75,26.89ZM55.62,37.48a12.1,12.1,0,0,0-.08-1.7V34.67c-.07-1.19-.16-2.38-.27-3.55V30.8c-.11-1.06-.23-2.11-.37-3.14,0-.37-.11-.74-.16-1.1s-.14-1-.22-1.44L55,24.9l.76-.31c.46-.2.92-.4,1.38-.62l.7-.33q.78-.39,1.53-.81l.48-.25c.66-.38,1.3-.77,1.94-1.18l.42-.28c.49-.32,1-.66,1.45-1l.62-.47c.41-.3.8-.61,1.2-.93l.63-.53,1.15-1,.55-.51.23-.21a36.34,36.34,0,0,1,8.59,21Zm10-23.6-.24.23-.49.46-1.06.94L63.3,16c-.4.32-.79.63-1.2.93l-.43.33c-.55.4-1.1.79-1.67,1.16l-.35.21c-.46.3-.93.58-1.4.85l-.6.33c-.41.23-.83.44-1.25.66l-.62.3c-.47.23-1,.44-1.43.64l-.44.19-.12.05a1.73,1.73,0,0,0-.07-.31c0-.11-.07-.31-.11-.47-.14-.65-.3-1.3-.46-1.93l-.06-.24c-.17-.68-.36-1.34-.55-2,0-.15-.09-.3-.14-.45q-.28-1-.6-1.86l-.06-.16c-.2-.56-.4-1.1-.61-1.62L51,12.22c-.22-.54-.45-1.07-.68-1.58l-.14-.29c-.21-.45-.43-.88-.66-1.3l-.12-.24c-.25-.46-.51-.9-.77-1.31a2.75,2.75,0,0,0-.19-.28c-.26-.41-.52-.8-.8-1.17h0c-.27-.35-.55-.68-.85-1l-.2-.22c-.27-.29-.54-.57-.82-.83A36.08,36.08,0,0,1,65.6,13.88Zm-32-9.13a2.2,2.2,0,0,0-.2.23c-.3.32-.59.65-.86,1h0c-.27.36-.54.75-.8,1.15l-.18.29c-.26.42-.52.85-.77,1.31,0,.08-.09.16-.13.25-.22.41-.44.84-.65,1.29,0,.1-.1.2-.14.3-.24.5-.47,1-.69,1.57l-.15.37c-.21.53-.41,1.06-.6,1.61l-.07.18c-.2.59-.4,1.22-.6,1.85a1.56,1.56,0,0,1-.14.45c-.19.64-.37,1.3-.55,2l-.06.25c-.16.62-.31,1.27-.46,1.92a2.46,2.46,0,0,1-.1.47c0,.15,0,.21-.07.31l-.13-.05-.43-.19c-.49-.2-1-.41-1.44-.64l-.62-.3c-.42-.21-.83-.43-1.25-.66L22,19.38c-.47-.27-.94-.55-1.4-.84l-.35-.22c-.57-.37-1.13-.76-1.68-1.16l-.43-.33c-.4-.3-.8-.61-1.19-.93l-.54-.45-1-.94c-.17-.15-.34-.3-.5-.46l-.23-.23a36.16,36.16,0,0,1,19.89-10C34.19,4.18,33.92,4.46,33.65,4.75ZM12.17,16.45l.23.21.57.52c.37.34.75.68,1.14,1l.64.53c.39.32.78.63,1.18.93l.63.47c.47.35,1,.68,1.44,1,.15.09.29.19.43.29.64.4,1.28.79,1.94,1.17l.48.26,1.52.8.72.34,1.36.61.77.32c.18.06.34.14.51.21-.08.5-.15,1-.22,1.53-.05.34-.11.68-.16,1-.15,1.15-.29,2.32-.41,3.51v.15c-.1,1.14-.19,2.29-.26,3.46a8.7,8.7,0,0,1-.05,1.14c-.05.38-.06,1-.07,1.54h-21A36.43,36.43,0,0,1,12.17,16.45ZM24.49,41c0,1.28,0,2.54.08,3.79a6.57,6.57,0,0,0,.05,1c.05.94.1,1.87.17,2.79,0,.46.08.92.12,1.38.07.78.15,1.56.23,2.33.06.5.13,1,.2,1.49s.11.92.17,1.37l-.51.21-.75.32c-.46.2-.91.4-1.35.61l-.7.34c-.51.25-1,.52-1.51.8l-.47.25c-.64.37-1.27.76-1.9,1.16l-.45.31c-.47.31-.93.63-1.39,1l-.63.48c-.39.29-.78.6-1.16.91l-.63.52-1.12,1c-.19.17-.37.33-.55.51l-.22.19A36.43,36.43,0,0,1,3.51,41ZM14.57,66.29l.22-.22.47-.44,1.06-.94.52-.44c.39-.32.78-.63,1.19-.93l.4-.32q.81-.59,1.65-1.14l.38-.24c.44-.28.89-.55,1.34-.81l.59-.33c.4-.23.81-.44,1.23-.65.19-.1.39-.21.59-.3.49-.24,1-.46,1.49-.68l.35-.15h.07l.06.27c.11.57.24,1.13.36,1.69l.21,1c.17.69.34,1.35.52,2,.05.16.09.34.14.51.22.81.47,1.59.72,2.35.07.22.15.43.23.64.18.53.36,1,.56,1.54.1.27.21.53.32.79.17.42.35.83.52,1.23l.38.78c.17.36.35.72.53,1.06l.41.73c.19.32.37.63.55.92l.45.67c.18.28.38.55.57.8l.24.34A36.11,36.11,0,0,1,14.57,66.29Zm32.94,9.35c.2-.26.39-.53.59-.81l.43-.66c.19-.3.38-.61.56-.93l.41-.73c.18-.34.35-.7.53-1.06l.38-.78c.18-.39.35-.81.52-1.22s.22-.52.33-.8c.19-.49.37-1,.55-1.51.07-.23.16-.44.23-.68q.39-1.12.72-2.34c.05-.17.1-.36.15-.54.17-.65.34-1.3.51-2l.21-1c.13-.55.25-1.1.36-1.67l.06-.27h.07l.36.15c.49.22,1,.44,1.48.68l.6.3c.41.21.82.42,1.22.65l.6.33c.45.26.89.53,1.33.81l.39.24c.55.37,1.1.75,1.64,1.14l.41.32c.4.31.79.61,1.18.93l.53.45a12.68,12.68,0,0,1,1,.92l.49.45.21.22A36.13,36.13,0,0,1,47.28,76C47.36,75.87,47.43,75.75,47.51,75.64Z" transform="translate(0.5 0.52)"/>
</svg>
